HIERARCHY
ROOT Hips
{
	OFFSET 0.00000 0.00000 0.00000
	CHANNELS 6 Xposition Yposition Zposition Zrotation Yrotation Xrotation 
	JOINT LHipJoint
	{
		OFFSET 0 0 0
		CHANNELS 3 Zrotation Yrotation Xrotation
		JOINT LeftHip
		{
			OFFSET 1.37590 -1.78394 0.89329
			CHANNELS 3 Zrotation Yrotation Xrotation
			JOINT LeftKnee
			{
				OFFSET 2.47928 -6.81178 0.00000
				CHANNELS 3 Zrotation Yrotation Xrotation
				JOINT LeftAnkle
				{
					OFFSET 2.63345 -7.23535 0.00000
					CHANNELS 3 Zrotation Yrotation Xrotation
					JOINT LeftToe
					{
						OFFSET 0.23938 -0.65768 2.27012
						CHANNELS 3 Zrotation Yrotation Xrotation
						End Site
						{
							OFFSET 0.00000 -0.00000 1.18363
						}
					}
				}
			}
		}
	}
	JOINT RHipJoint
	{
		OFFSET 0 0 0
		CHANNELS 3 Zrotation Yrotation Xrotation
		JOINT RightHip
		{
			OFFSET -1.33617 -1.78394 0.89329
			CHANNELS 3 Zrotation Yrotation Xrotation
			JOINT RightKnee
			{
				OFFSET -2.56922 -7.05888 0.00000
				CHANNELS 3 Zrotation Yrotation Xrotation
				JOINT RightAnkle
				{
					OFFSET -2.56568 -7.04915 0.00000
					CHANNELS 3 Zrotation Yrotation Xrotation
					JOINT RightToe
					{
						OFFSET -0.27533 -0.75646 2.18105
						CHANNELS 3 Zrotation Yrotation Xrotation
						End Site
						{
							OFFSET -0.00000 -0.00000 1.15233
						}
					}
				}
			}
		}
	}
	JOINT lowerback
	{
		OFFSET 0 0 0
		CHANNELS 3 Zrotation Yrotation Xrotation
		JOINT Chest
		{
			OFFSET 0.06190 2.15152 -0.00935
			CHANNELS 3 Zrotation Yrotation Xrotation
			JOINT Chest2
			{
				OFFSET 0.06334 2.15332 0.00872
				CHANNELS 3 Zrotation Yrotation Xrotation
				JOINT lowerneck
				{
					OFFSET 0 0 0
					CHANNELS 3 Zrotation Yrotation Xrotation
					JOINT Neck
					{
						OFFSET -0.04202 1.66908 0.23524
						CHANNELS 3 Zrotation Yrotation Xrotation
						JOINT Head
						{
							OFFSET 0.07510 1.69357 -0.24440
							CHANNELS 3 Zrotation Yrotation Xrotation
							End Site
							{
								OFFSET 0.02556 1.71719 -0.11000
							}
						}
					}
				}
				JOINT LeftCollar
				{
					OFFSET 0 0 0
					CHANNELS 3 Zrotation Yrotation Xrotation
					JOINT LeftShoulder
					{
						OFFSET 3.67168 1.26306 -0.41342
CHANNELS 3 Zrotation Xrotation Yrotation
						JOINT LeftElbow
						{
OFFSET 0 -4.685100 -0.000000
CHANNELS 3 Zrotation Xrotation Yrotation
							JOINT LeftWrist
							{
OFFSET 0 -3.396260 -0.000000
CHANNELS 3 Zrotation Xrotation Yrotation
								JOINT lhand
								{
									OFFSET 0 0 0
CHANNELS 3 Zrotation Xrotation Yrotation
									JOINT LFingers
									{
OFFSET 0 -0.486080 -0.000000
CHANNELS 3 Zrotation Xrotation Yrotation
										End Site
										{
OFFSET 0 -0.391890 -0.000000
										}
									}
								}
								JOINT LThumb
								{
OFFSET 0 0.000000 0.000000
CHANNELS 3 Zrotation Xrotation Yrotation
									End Site
									{
OFFSET 0 -0.397870 0.397870
									}
								}
							}
						}
					}
				}
				JOINT RightCollar
				{
					OFFSET 0 0 0
					CHANNELS 3 Zrotation Yrotation Xrotation
					JOINT RightShoulder
					{
						OFFSET -3.04136 1.42992 -0.76390
CHANNELS 3 Zrotation Xrotation Yrotation
						JOINT RightElbow
						{
OFFSET 0 -5.555760 -0.000000
CHANNELS 3 Zrotation Xrotation Yrotation
							JOINT RightWrist
							{
OFFSET 0 -3.327740 -0.000000
CHANNELS 3 Zrotation Xrotation Yrotation
								JOINT rhand
								{
									OFFSET 0 0 0
CHANNELS 3 Zrotation Xrotation Yrotation
									JOINT RFingers
									{
OFFSET 0 -0.507630 -0.000000
CHANNELS 3 Zrotation Xrotation Yrotation
										End Site
										{
OFFSET 0 -0.409260 -0.000000
										}
									}
								}
								JOINT RThumb
								{
OFFSET 0 0.000000 0.000000
CHANNELS 3 Zrotation Xrotation Yrotation
									End Site
									{
OFFSET 0 -0.415510 0.415510
									}
								}
							}
						}
					}
				}
			}
		}
	}
}
MOTION
Frames: 4
Frame Time: 0.008333333333333333
-2.532855 17.498096 4.810600 -66.307012 -78.598915 73.637118 0.000000 0.000000 0.000000 0.751287 -13.628476 -37.571838 1.858445 8.564753 24.443051 0.114439 -0.312858 -6.283083 0.622548 -5.049230 -14.048926 0.000000 0.000000 0.000000 37.820260 3.870978 2.013024 -1.080066 -6.604953 18.550413 -1.156969 -3.122019 -21.663040 -0.080982 -1.828177 5.031288 6.562239 3.450345 -2.688214 1.328291 4.300240 0.869590 -2.060226 2.227322 2.789298 -7.728740 -3.909089 -16.470777 5.951453 -4.134009 -0.987276 2.770514 -1.884725 2.584009 0.000000 0.000000 0.000000 -2.560659 -0.763566 -33.460751 30.125628 -41.000738 11.491962 15.474541 21.217239 -17.854562 0.000000 0.000000 0.000000 -7.125000 0.000000 0.000000 -12.121283 48.082758 0.934670 0.000000 0.000000 0.000000 1.332298 -4.151676 41.564894 -36.946422 -46.140946 -16.205278 -23.832934 25.033451 25.036171 0.000000 0.000000 0.000000 7.125000 0.000000 0.000000 6.372151 56.916154 -1.865484
-2.763541 17.458143 4.812063 -65.423547 -78.630216 72.797529 0.000000 0.000000 0.000000 0.655499 -14.088400 -37.729172 1.837084 8.518182 24.299363 0.103920 -0.559978 -5.914410 0.598795 -4.953827 -13.776894 0.000000 0.000000 0.000000 37.788707 3.572585 2.163124 -1.187648 -6.915711 19.465927 -1.197303 -3.111055 -22.003785 -0.044249 -1.357345 3.732674 6.447919 3.630678 -2.688660 1.165070 4.553512 0.841606 -2.149156 2.353996 2.786429 -7.901847 -4.170290 -16.414275 6.265562 -4.464762 -0.878452 2.869411 -2.035457 2.643715 0.000000 0.000000 0.000000 -2.745407 -0.781473 -33.698962 29.944678 -40.845953 11.373463 15.502262 21.212483 -17.861226 0.000000 0.000000 0.000000 -7.125000 0.000000 0.000000 -12.097525 48.093366 0.936064 0.000000 0.000000 0.000000 2.120702 -4.890400 42.819407 -34.350324 -44.341764 -14.357596 -23.402471 24.483904 24.671222 0.000000 0.000000 0.000000 7.125000 0.000000 0.000000 6.686570 56.443459 -1.881996
-2.997364 17.420723 4.816226 -64.570891 -78.687933 71.975929 0.000000 0.000000 0.000000 0.492818 -14.507648 -37.860242 1.847413 8.540691 24.368803 0.093571 -0.849017 -5.539518 0.568467 -4.828445 -13.419940 0.000000 0.000000 0.000000 37.696957 3.263608 2.243546 -1.315559 -7.263441 20.498847 -1.223103 -3.076722 -22.204737 -0.020337 -0.907660 2.494872 6.319534 3.800221 -2.678965 1.001716 4.793682 0.806302 -2.232188 2.473393 2.768436 -8.071201 -4.435627 -16.368371 6.609305 -4.804298 -0.744740 2.975255 -2.189127 2.715981 0.000000 0.000000 0.000000 -2.930515 -0.755105 -33.902929 29.743958 -40.672839 11.242399 15.515955 21.204845 -17.895634 0.000000 0.000000 0.000000 -7.125000 0.000000 0.000000 -12.095889 48.129807 0.946883 0.000000 0.000000 0.000000 2.692623 -5.543188 44.259023 -32.229654 -42.722773 -12.898766 -22.959617 23.842598 24.303438 0.000000 0.000000 0.000000 7.125000 0.000000 0.000000 7.010399 55.968092 -1.892471
-3.233832 17.385726 4.822694 -63.730824 -78.767650 71.153859 0.000000 0.000000 0.000000 0.270830 -14.891458 -37.960978 1.882123 8.616068 24.601619 0.083319 -1.171774 -5.166081 0.532995 -4.677710 -12.991732 0.000000 0.000000 0.000000 37.551836 2.942353 2.262320 -1.462189 -7.641006 21.629584 -1.233291 -3.035131 -22.269868 -0.005958 -0.478390 1.314440 6.178882 3.957724 -2.661970 0.839084 5.018663 0.767325 -2.309482 2.584696 2.740396 -8.235788 -4.701893 -16.330854 6.974880 -5.148283 -0.592887 3.085960 -2.343722 2.797852 0.000000 0.000000 0.000000 -3.115721 -0.695260 -34.070584 29.529910 -40.486911 11.103130 15.521105 21.190103 -17.952227 0.000000 0.000000 0.000000 -7.125000 0.000000 0.000000 -12.109651 48.187244 0.965356 0.000000 0.000000 0.000000 3.081935 -6.119047 45.869749 -30.476887 -41.294307 -11.724718 -22.504470 23.119181 23.936894 0.000000 0.000000 0.000000 7.125000 0.000000 0.000000 7.345382 55.493842 -1.898968
